<?xml version="1.0" encoding="utf-8"?>
<!-- Svg Vector Icons : http://www.onlinewebfonts.com/icon -->
<!DOCTYPE svg PUBLIC "-//W3C//DTD SVG 1.1//EN" "http://www.w3.org/Graphics/SVG/1.1/DTD/svg11.dtd">
<svg version="1.1" xmlns="http://www.w3.org/2000/svg" xmlns:xlink="http://www.w3.org/1999/xlink" x="0px" y="0px" viewBox="0 0 1000 1000" enable-background="new 0 0 1000 1000" xml:space="preserve">
<metadata> Svg Vector Icons : http://www.onlinewebfonts.com/icon </metadata>
<g><path d="M500,39.6C229.8,39.6,10,213,10,426c0,127.3,78.8,240.1,199.6,310.6l-48,223.8l254.7-153.7l-0.8-0.4c27.5,3.8,55.6,6.2,84.5,6.2c270.2,0,490-173.4,490-386.5C990,213,770.2,39.6,500,39.6z M500,759.7C258.9,759.7,62.7,610,62.7,426C62.7,242,258.9,92.3,500,92.3C741.1,92.3,937.3,242,937.3,426C937.3,610,741.1,759.7,500,759.7z"/><path d="M299.4,257.3h88.9v89h-88.9V257.3z"/><path d="M299.4,500h88.9v89h-88.9V500L299.4,500z"/><path d="M588.9,231v52.7c58.3,0,105.8,67.9,105.8,151.5c0,83.6-47.5,151.6-105.8,151.6v52.7c87.4,0,158.5-91.6,158.5-204.2C747.3,322.6,676.3,231,588.9,231z"/></g>
</svg>